<?xml version="1.0" encoding="UTF-8" standalone="no"?>
<svg width="120px" height="120px" viewBox="0 0 120 120" version="1.1" xmlns="http://www.w3.org/2000/svg" xmlns:xlink="http://www.w3.org/1999/xlink" xmlns:sketch="http://www.bohemiancoding.com/sketch/ns">
    <!-- Generator: Sketch 3.3.2 (12043) - http://www.bohemiancoding.com/sketch -->
    <title>symbol</title>
    <desc>Created with Sketch.</desc>
    <defs></defs>
    <g id="Etusivu" stroke="none" stroke-width="1" fill="none" fill-rule="evenodd" sketch:type="MSPage">
        <g id="etusivu" sketch:type="MSArtboardGroup" transform="translate(-659.000000, -1185.000000)" fill="#898989">
            <g id="footer" sketch:type="MSLayerGroup" transform="translate(0.000000, 1106.000000)">
                <g id="symbol" transform="translate(659.000000, 79.000000)" sketch:type="MSShapeGroup">
                    <path d="M106.311285,97.8261453 L13.8355307,97.8261453 L13.8355307,97.0545251 L106.311285,97.0545251 L106.311285,97.8261453 Z" id="Fill-308"></path>
                    <path d="M51.9038212,97.4402011 L51.1322011,97.4402011 L51.1322011,51.0022123 L51.351419,50.8962905 L85.5561117,34.551486 L118.949631,50.5188603 L118.618458,51.2153966 L85.5561117,35.4062346 L51.9038212,51.4875754 L51.9038212,97.4402011 Z" id="Fill-309"></path>
                    <path d="M32.5830168,81.2386592 L31.8113966,81.2386592 L31.8113966,69.4156425 L32.5830168,69.4156425 L32.5830168,81.2386592 Z" id="Fill-310"></path>
                    <path d="M34.9903911,73.8181006 L26.6306145,73.8181006 L26.6306145,73.0464804 L34.9903911,73.0464804 L34.9903911,73.8181006 Z" id="Fill-311"></path>
                    <path d="M34.9903911,77.7351955 L26.6306145,77.7351955 L26.6306145,76.9635754 L34.9903911,76.9635754 L34.9903911,77.7351955 Z" id="Fill-312"></path>
                    <path d="M29.8116201,81.252067 L29.04,81.252067 L29.04,69.4572067 L29.8116201,69.4572067 L29.8116201,81.252067 Z" id="Fill-313"></path>
                    <path d="M51.6083128,52.9162458 L49.0963575,52.9162458 L48.3642905,49.5602682 L48.6371397,49.4275307 L85.5542346,31.5408268 L118.39267,47.4505475 L118.057475,48.1450726 L85.5542346,32.3975866 L49.2471955,49.9893184 L49.7178101,52.1446257 L51.6083128,52.1446257 L51.6083128,52.9162458 Z" id="Fill-314"></path>
                    <path d="M37.7088939,97.4514637 L36.9392849,97.4286704 L39.3647598,15.6054302 L51.0972737,15.6054302 L51.1026369,15.9868827 L51.5303464,48.4143687 L50.7587263,48.4237542 L50.3370503,16.3777207 L40.1135866,16.3777207 L37.7088939,97.4514637 Z" id="Fill-315"></path>
                    <path d="M38.1506145,62.3825698 L0.835977654,62.3825698 L0.835977654,61.6109497 L38.1506145,61.6109497 L38.1506145,62.3825698 Z" id="Fill-316"></path>
                    <path d="M38.5729609,53.0782123 L1.08938547,53.0782123 L1.08938547,52.3065922 L38.5729609,52.3065922 L38.5729609,53.0782123 Z" id="Fill-317"></path>
                    <path d="M95.7117318,52.7376536 L94.9401117,52.7376536 L94.9401117,46.5894972 L95.7117318,46.5894972 L95.7117318,52.7376536 Z" id="Fill-318"></path>
                    <path d="M91.8489385,52.7376536 L91.0773184,52.7376536 L91.0773184,46.5894972 L91.8489385,46.5894972 L91.8489385,52.7376536 Z" id="Fill-319"></path>
                    <path d="M99.1394413,49.9273743 L87.6529609,49.9273743 L87.6529609,49.1557542 L99.1394413,49.1557542 L99.1394413,49.9273743 Z" id="Fill-320"></path>
                    <path d="M99.5778771,52.9367598 L87.2145251,52.9367598 L87.2145251,46.2522905 L99.5778771,46.2522905 L99.5778771,52.9367598 Z M87.9861453,52.1651397 L98.806257,52.1651397 L98.806257,47.024581 L87.9861453,47.024581 L87.9861453,52.1651397 Z" id="Fill-321"></path>
                    <path d="M76.1684916,72.0563128 L75.3968715,72.0563128 L75.3968715,60.2741899 L76.1684916,60.2741899 L76.1684916,72.0563128 Z" id="Fill-322"></path>
                    <path d="M83.4589944,64.5740782 L71.972514,64.5740782 L71.972514,63.8024581 L83.4589944,63.8024581 L83.4589944,64.5740782 Z" id="Fill-323"></path>
                    <path d="M80.0312849,72.0563128 L79.2596648,72.0563128 L79.2596648,60.2741899 L80.0312849,60.2741899 L80.0312849,72.0563128 Z" id="Fill-324"></path>
                    <path d="M83.4589944,68.4556425 L71.972514,68.4556425 L71.972514,67.6840223 L83.4589944,67.6840223 L83.4589944,68.4556425 Z" id="Fill-325"></path>
                    <path d="M83.8974302,72.4176536 L71.532067,72.4176536 L71.532067,59.9336313 L83.8974302,59.9336313 L83.8974302,72.4176536 Z M72.3043575,71.6460335 L83.1264804,71.6460335 L83.1264804,60.7059218 L72.3043575,60.7059218 L72.3043575,71.6460335 Z" id="Fill-326"></path>
                    <path d="M83.8974302,52.9367598 L71.5340782,52.9367598 L71.5340782,46.2522905 L83.8974302,46.2522905 L83.8974302,52.9367598 Z M72.3056983,52.1651397 L83.1258101,52.1651397 L83.1258101,47.024581 L72.3056983,47.024581 L72.3056983,52.1651397 Z" id="Fill-327"></path>
                    <path d="M76.1705028,52.7376536 L75.3988827,52.7376536 L75.3988827,46.5894972 L76.1705028,46.5894972 L76.1705028,52.7376536 Z" id="Fill-328"></path>
                    <path d="M80.0353073,52.7376536 L79.2636872,52.7376536 L79.2636872,46.5894972 L80.0353073,46.5894972 L80.0353073,52.7376536 Z" id="Fill-329"></path>
                    <path d="M83.4610056,49.9273743 L71.9745251,49.9273743 L71.9745251,49.1557542 L83.4610056,49.1557542 L83.4610056,49.9273743 Z" id="Fill-330"></path>
                    <path d="M11.5796648,91.1906145 L10.8080447,91.1906145 L10.8080447,85.0424581 L11.5796648,85.0424581 L11.5796648,91.1906145 Z" id="Fill-331"></path>
                    <path d="M15.4437989,91.1906145 L14.6721788,91.1906145 L14.6721788,85.0424581 L15.4437989,85.0424581 L15.4437989,91.1906145 Z" id="Fill-332"></path>
                    <path d="M18.8688268,88.3803352 L7.38234637,88.3803352 L7.38234637,87.6087151 L18.8688268,87.6087151 L18.8688268,88.3803352 Z" id="Fill-333"></path>
                    <path d="M19.3077318,91.390257 L9.3363352,91.390257 L9.3363352,90.6186369 L18.5361117,90.6186369 L18.5361117,85.476067 L7.716,85.476067 L7.716,87.5522682 L6.94437989,87.5522682 L6.94437989,84.7037765 L19.3077318,84.7037765 L19.3077318,91.390257 Z" id="Fill-334"></path>
                    <path d="M60.4873743,72.0563128 L59.7157542,72.0563128 L59.7157542,60.2741899 L60.4873743,60.2741899 L60.4873743,72.0563128 Z" id="Fill-335"></path>
                    <path d="M67.7792179,64.5740782 L56.292067,64.5740782 L56.292067,63.8024581 L67.7792179,63.8024581 L67.7792179,64.5740782 Z" id="Fill-336"></path>
                    <path d="M64.350838,72.0563128 L63.5792179,72.0563128 L63.5792179,60.2741899 L64.350838,60.2741899 L64.350838,72.0563128 Z" id="Fill-337"></path>
                    <path d="M67.7792179,68.4556425 L56.292067,68.4556425 L56.292067,67.6840223 L67.7792179,67.6840223 L67.7792179,68.4556425 Z" id="Fill-338"></path>
                    <path d="M68.2156425,72.4176536 L55.8522905,72.4176536 L55.8522905,59.9336313 L68.2156425,59.9336313 L68.2156425,72.4176536 Z M56.6239106,71.6460335 L67.4440223,71.6460335 L67.4440223,60.7059218 L56.6239106,60.7059218 L56.6239106,71.6460335 Z" id="Fill-339"></path>
                    <path d="M91.8489385,72.0563128 L91.0773184,72.0563128 L91.0773184,60.2741899 L91.8489385,60.2741899 L91.8489385,72.0563128 Z" id="Fill-340"></path>
                    <path d="M99.1394413,64.5740782 L87.6529609,64.5740782 L87.6529609,63.8024581 L99.1394413,63.8024581 L99.1394413,64.5740782 Z" id="Fill-341"></path>
                    <path d="M95.7117318,72.0563128 L94.9401117,72.0563128 L94.9401117,60.2741899 L95.7117318,60.2741899 L95.7117318,72.0563128 Z" id="Fill-342"></path>
                    <path d="M99.1394413,68.4556425 L87.6529609,68.4556425 L87.6529609,67.6840223 L99.1394413,67.6840223 L99.1394413,68.4556425 Z" id="Fill-343"></path>
                    <path d="M99.5778771,72.4176536 L87.2145251,72.4176536 L87.2145251,59.9336313 L99.5778771,59.9336313 L99.5778771,72.4176536 Z M87.9861453,71.6460335 L98.806257,71.6460335 L98.806257,60.7059218 L87.9861453,60.7059218 L87.9861453,71.6460335 Z" id="Fill-344"></path>
                    <path d="M107.529385,72.0563128 L106.757765,72.0563128 L106.757765,60.2741899 L107.529385,60.2741899 L107.529385,72.0563128 Z" id="Fill-345"></path>
                    <path d="M114.819888,64.5740782 L103.333408,64.5740782 L103.333408,63.8024581 L114.819888,63.8024581 L114.819888,64.5740782 Z" id="Fill-346"></path>
                    <path d="M111.39352,72.0563128 L110.621899,72.0563128 L110.621899,60.2741899 L111.39352,60.2741899 L111.39352,72.0563128 Z" id="Fill-347"></path>
                    <path d="M114.819888,68.4556425 L103.333408,68.4556425 L103.333408,67.6840223 L114.819888,67.6840223 L114.819888,68.4556425 Z" id="Fill-348"></path>
                    <path d="M115.258324,72.4176536 L102.894972,72.4176536 L102.894972,59.9336313 L115.258324,59.9336313 L115.258324,72.4176536 Z M103.666592,71.6460335 L114.486704,71.6460335 L114.486704,60.7059218 L103.666592,60.7059218 L103.666592,71.6460335 Z" id="Fill-349"></path>
                    <path d="M93.4994413,87.553743 L87.3519553,87.553743 L87.3519553,86.7821229 L93.4994413,86.7821229 L93.4994413,87.553743 Z" id="Fill-350"></path>
                    <path d="M93.4994413,83.6741899 L87.3519553,83.6741899 L87.3519553,82.9025698 L93.4994413,82.9025698 L93.4994413,83.6741899 Z" id="Fill-351"></path>
                    <path d="M90.9338547,90.9553073 L90.1622346,90.9553073 L90.1622346,79.4688268 L90.9338547,79.4688268 L90.9338547,90.9553073 Z" id="Fill-352"></path>
                    <path d="M93.836648,91.393743 L87.1501676,91.393743 L87.1501676,79.0303911 L93.836648,79.0303911 L93.836648,91.393743 Z M87.9224581,90.6221229 L93.0650279,90.6221229 L93.0650279,79.8020112 L87.9224581,79.8020112 L87.9224581,90.6221229 Z" id="Fill-353"></path>
                    <path d="M83.6172067,87.553743 L77.4710615,87.553743 L77.4710615,86.7821229 L83.6172067,86.7821229 L83.6172067,87.553743 Z" id="Fill-354"></path>
                    <path d="M83.6172067,83.6741899 L77.4710615,83.6741899 L77.4710615,82.9025698 L83.6172067,82.9025698 L83.6172067,83.6741899 Z" id="Fill-355"></path>
                    <path d="M81.0516201,90.9553073 L80.28,90.9553073 L80.28,79.4688268 L81.0516201,79.4688268 L81.0516201,90.9553073 Z" id="Fill-356"></path>
                    <path d="M83.9564246,91.393743 L77.2719553,91.393743 L77.2719553,79.0303911 L83.9564246,79.0303911 L83.9564246,91.393743 Z M78.0435754,90.6221229 L83.1841341,90.6221229 L83.1841341,79.8020112 L78.0435754,79.8020112 L78.0435754,90.6221229 Z" id="Fill-357"></path>
                    <path d="M11.6286034,78.778324 L10.8569832,78.778324 L10.8569832,66.9948603 L11.6286034,66.9948603 L11.6286034,78.778324 Z" id="Fill-358"></path>
                    <path d="M18.9184358,71.2960894 L7.43195531,71.2960894 L7.43195531,70.5244693 L18.9184358,70.5244693 L18.9184358,71.2960894 Z" id="Fill-359"></path>
                    <path d="M15.492067,78.778324 L14.7204469,78.778324 L14.7204469,66.9948603 L15.492067,66.9948603 L15.492067,78.778324 Z" id="Fill-360"></path>
                    <path d="M18.9184358,75.1769832 L7.43195531,75.1769832 L7.43195531,74.4053631 L18.9184358,74.4053631 L18.9184358,75.1769832 Z" id="Fill-361"></path>
                    <path d="M19.3568715,79.1396648 L6.99217877,79.1396648 L6.99217877,66.6576536 L19.3568715,66.6576536 L19.3568715,79.1396648 Z M7.76379888,78.3680447 L18.584581,78.3680447 L18.584581,67.4292737 L7.76379888,67.4292737 L7.76379888,78.3680447 Z" id="Fill-362"></path>
                    <path d="M26.6385251,81.6376089 L26.2523799,81.6376089 L26.2523799,81.2514637 C26.2523799,72.692581 26.2564022,69.5129162 26.2564022,69.5129162 L26.257743,69.1274413 L35.3549497,69.1274413 L35.3549497,81.6282235 L34.9701453,81.6282235 C34.9701453,81.6282235 27.8693631,81.6376089 26.6385251,81.6376089 L26.6385251,81.6376089 Z M27.027352,69.8990615 C27.0260112,70.9502346 27.0246704,74.2465475 27.0246704,80.8659888 C28.6369609,80.8659888 33.2231061,80.8586145 34.5833296,80.8566034 L34.5833296,69.8990615 L27.027352,69.8990615 Z" id="Fill-363"></path>
                    <path d="M60.0734078,119.86686 C27.0982123,119.86686 0.269162011,93.0391508 0.269162011,60.0639553 C0.269162011,27.087419 27.0982123,0.258368715 60.0734078,0.258368715 C93.0499441,0.258368715 119.877654,27.087419 119.877654,60.0639553 C119.877654,93.0391508 93.0499441,119.86686 60.0734078,119.86686 M60.0734078,1.03065922 C27.5225698,1.03065922 1.04078212,27.5124469 1.04078212,60.0639553 C1.04078212,92.6141229 27.5225698,119.09524 60.0734078,119.09524 C92.6242458,119.09524 119.106034,92.6141229 119.106034,60.0639553 C119.106034,27.5124469 92.6242458,1.03065922 60.0734078,1.03065922" id="Fill-365"></path>
                </g>
            </g>
        </g>
    </g>
</svg>